<?xml version="1.0" standalone="no"?>
<!DOCTYPE svg PUBLIC "-//W3C//DTD SVG 20010904//EN"
 "http://www.w3.org/TR/2001/REC-SVG-20010904/DTD/svg10.dtd">
<svg version="1.0" xmlns="http://www.w3.org/2000/svg"
 width="16.000000pt" height="16.000000pt" viewBox="0 0 16.000000 16.000000"
 preserveAspectRatio="xMidYMid meet">
<metadata>
Created by potrace 1.11, written by Peter Selinger 2001-2013
</metadata>
<g transform="translate(0.000000,16.000000) scale(0.002500,-0.002500)"
fill="#000000" stroke="none">
<path d="M2808 6223 c6 -2 18 -2 25 0 6 3 1 5 -13 5 -14 0 -19 -2 -12 -5z"/>
<path d="M2935 6214 c-151 -21 -190 -27 -255 -41 -82 -17 -307 -74 -382 -97
-27 -8 -48 -12 -48 -8 0 4 -4 2 -8 -3 -11 -15 -62 -36 -73 -30 -5 4 -9 2 -9
-2 0 -5 -17 -15 -37 -22 -21 -8 -60 -24 -86 -37 -27 -12 -56 -20 -65 -17 -13
4 -14 3 -3 -5 16 -12 -3 -27 -21 -16 -6 4 -8 3 -5 -3 9 -14 -29 -47 -43 -38
-5 3 -7 11 -4 17 4 7 2 8 -5 4 -9 -6 -9 -11 0 -22 10 -12 8 -16 -9 -21 -12 -3
-22 -10 -22 -15 0 -5 -5 -6 -12 -2 -6 4 -8 3 -5 -3 4 -6 -2 -18 -12 -27 -15
-14 -20 -14 -25 -4 -3 7 -4 4 -3 -7 1 -13 -3 -19 -13 -17 -8 2 -12 1 -8 -3 8
-9 -82 -121 -95 -117 -4 1 -6 -1 -3 -6 3 -5 -2 -19 -11 -31 -11 -16 -18 -19
-23 -11 -5 8 -9 7 -13 -5 -4 -9 -3 -13 3 -10 15 9 12 -2 -7 -31 -12 -19 -18
-22 -25 -12 -7 9 -8 8 -4 -5 8 -24 -14 -69 -28 -58 -8 6 -12 -1 -13 -22 -1
-17 -8 -34 -15 -39 -7 -4 -9 -8 -4 -8 5 0 2 -8 -6 -17 -9 -10 -23 -34 -31 -53
-9 -19 -24 -51 -35 -70 -28 -51 -49 -100 -62 -142 -6 -21 -16 -38 -21 -38 -6
0 -7 -5 -3 -11 3 -6 1 -15 -5 -19 -7 -4 -14 -18 -15 -31 -2 -13 -13 -62 -24
-109 -56 -224 -57 -479 -5 -715 8 -38 17 -81 20 -95 3 -14 14 -55 24 -93 11
-37 17 -73 13 -80 -4 -6 -3 -9 1 -4 5 4 21 -30 37 -75 15 -45 35 -97 43 -114
8 -18 15 -35 15 -39 0 -4 14 -37 31 -73 17 -37 37 -85 45 -106 8 -21 23 -53
34 -70 13 -22 16 -36 10 -46 -15 -23 -12 -36 3 -16 13 17 14 16 26 -12 7 -17
10 -36 5 -43 -4 -7 -3 -10 3 -6 5 3 18 -8 28 -26 10 -18 21 -34 24 -37 14 -11
30 -61 25 -74 -3 -8 -1 -17 5 -21 7 -3 8 0 5 9 -3 9 -3 16 0 16 12 0 37 -70
30 -82 -5 -7 -2 -8 6 -3 10 6 12 4 7 -9 -4 -10 -3 -15 3 -11 11 7 70 -71 70
-92 0 -7 4 -13 10 -13 5 0 7 -7 3 -16 -5 -13 -7 -13 -14 -2 -5 7 -9 9 -9 3 0
-5 4 -16 9 -23 6 -11 10 -10 15 4 6 15 11 12 31 -19 14 -20 25 -38 25 -41 0
-4 8 -15 18 -25 35 -39 42 -50 42 -66 0 -9 5 -13 10 -10 5 3 10 -3 10 -15 0
-14 4 -19 12 -14 8 5 9 2 5 -10 -4 -9 -3 -15 2 -12 13 8 34 -21 25 -35 -4 -8
-3 -9 4 -5 6 4 18 -5 28 -21 9 -15 25 -40 35 -55 21 -31 24 -42 8 -32 -8 4 -8
0 0 -15 13 -24 23 -28 15 -6 -4 8 -4 15 0 15 9 0 40 -64 38 -78 -2 -7 3 -11
10 -10 8 2 13 -6 12 -19 0 -12 2 -20 6 -18 4 2 16 -18 28 -45 23 -52 44 -130
35 -130 -3 0 -1 -6 5 -13 11 -13 36 -153 53 -297 6 -52 14 -117 17 -145 20
-148 -4 -405 -37 -405 -10 0 -32 -16 -51 -35 -30 -31 -34 -41 -33 -83 3 -80 5
-92 14 -86 15 9 10 -13 -5 -25 -22 -19 -31 -64 -27 -137 1 -8 5 -13 10 -10 5
3 14 0 20 -8 9 -11 8 -17 -4 -29 -8 -9 -15 -30 -15 -47 0 -32 27 -90 42 -90 5
0 1 -11 -8 -25 -11 -17 -14 -35 -10 -57 4 -18 8 -41 9 -50 1 -9 4 -15 8 -13 3
3 14 -4 23 -14 17 -18 17 -21 1 -45 -24 -37 -36 -93 -19 -93 7 0 10 5 7 11 -3
6 0 5 8 -2 8 -7 14 -20 14 -30 0 -10 8 -17 20 -17 11 0 20 -5 21 -10 5 -45 22
-79 53 -107 20 -18 37 -32 38 -30 2 1 4 2 6 1 1 0 27 -2 57 -5 30 -3 70 -6 88
-8 27 -2 39 -11 63 -47 16 -24 29 -52 29 -62 0 -10 4 -16 9 -12 5 3 13 -5 17
-17 3 -13 15 -31 25 -41 11 -10 17 -22 14 -27 -3 -5 0 -12 6 -16 8 -5 9 -3 4
7 -22 36 31 -19 56 -59 15 -24 30 -38 34 -33 3 6 2 11 -3 11 -6 0 -13 7 -16
15 -5 13 -1 12 18 -2 13 -10 21 -22 18 -27 -3 -5 3 -6 12 -3 14 6 17 3 12 -10
-5 -13 -4 -15 4 -7 8 8 25 7 63 -4 33 -9 99 -15 182 -15 107 -1 144 3 210 22
44 13 88 26 98 28 9 3 17 9 17 13 0 4 15 13 33 20 17 7 48 29 69 48 20 19 41
31 47 28 7 -4 9 -1 5 8 -7 18 39 89 51 78 4 -4 4 4 0 17 -5 16 -4 21 4 17 6
-4 11 -3 11 2 0 5 15 9 33 9 87 0 148 7 158 20 6 7 18 13 25 13 8 0 14 4 14
10 0 5 5 9 10 7 6 -1 20 16 33 38 12 22 25 41 28 43 3 1 4 14 1 27 -3 18 0 25
11 25 9 0 21 9 27 20 6 11 18 20 26 20 9 0 12 5 8 12 -5 7 -3 8 5 4 7 -5 10
-15 6 -23 -5 -13 -3 -14 10 -3 11 9 13 15 4 20 -16 10 -15 130 1 140 17 11 40
102 29 116 -6 8 -1 17 15 28 29 18 40 21 31 6 -3 -5 -4 -10 -1 -10 3 0 10 10
17 21 9 17 8 20 -3 14 -7 -5 -4 3 8 16 12 13 24 32 28 43 10 29 -14 93 -40
107 -20 10 -22 15 -11 28 7 8 7 12 1 8 -8 -5 -9 6 -3 36 11 56 11 59 -1 52 -6
-3 -10 1 -10 9 0 8 -11 24 -25 34 -15 12 -21 23 -16 27 6 3 15 24 21 46 10 35
8 47 -10 83 -11 24 -31 49 -45 56 -19 10 -22 16 -13 22 7 4 -1 5 -19 2 -28 -5
-33 -3 -34 12 -3 81 -1 167 3 209 12 107 21 154 27 151 3 -2 6 8 7 22 2 40 27
132 37 132 4 0 5 5 2 10 -6 10 23 111 52 180 28 66 32 75 44 112 7 21 17 38
21 38 4 0 7 3 7 8 -1 4 -1 14 0 22 1 13 3 13 12 0 9 -13 10 -12 5 3 -3 10 -2
25 3 35 5 9 24 48 42 85 36 74 62 111 73 100 4 -4 4 0 1 9 -8 19 20 49 40 42
7 -3 19 4 25 16 10 18 9 21 -1 15 -9 -6 -11 -3 -6 9 5 12 3 15 -5 10 -18 -12
22 49 62 93 19 21 33 38 30 38 -3 0 5 17 18 38 12 21 27 35 33 32 6 -4 9 0 7
11 -2 12 2 18 10 16 8 -1 11 2 7 8 -8 12 21 55 38 55 6 0 11 8 9 18 -2 9 1 17
6 17 5 0 12 9 15 21 4 14 10 18 19 13 7 -4 10 -4 6 1 -9 9 40 70 56 70 6 1 10
6 8 13 -2 12 6 25 39 60 9 9 22 27 28 40 7 12 16 20 20 17 5 -3 12 2 15 11 4
10 2 13 -7 8 -11 -6 21 35 48 61 5 6 19 26 29 45 11 19 22 37 25 40 12 10 80
157 86 185 2 6 14 57 29 115 29 119 68 346 90 525 53 428 15 778 -110 1027
-19 38 -32 73 -29 78 3 5 0 12 -6 16 -8 5 -9 3 -4 -6 6 -9 4 -11 -4 -6 -7 5
-10 14 -7 22 3 7 0 16 -6 20 -7 5 -8 2 -3 -7 8 -12 6 -12 -8 0 -13 10 -15 17
-6 27 6 8 15 12 19 9 5 -3 11 -1 15 4 6 10 -27 7 -45 -4 -5 -3 -16 11 -25 31
-8 20 -18 34 -22 30 -4 -3 -34 20 -67 53 -82 80 -140 133 -165 150 -11 8 -18
18 -15 23 3 5 2 8 -3 7 -32 -5 -65 24 -67 60 -1 8 -8 16 -16 18 -13 4 -13 3 0
-6 8 -5 12 -12 9 -16 -8 -7 -44 26 -52 48 -3 9 -14 17 -22 17 -9 0 -13 4 -10
10 4 6 -1 7 -11 3 -13 -5 -16 -3 -11 9 3 10 0 19 -9 22 -9 3 -12 1 -9 -4 4 -6
-9 0 -28 13 -19 13 -49 30 -67 37 -23 9 -28 15 -18 21 9 6 5 9 -12 9 -14 0
-43 9 -65 20 -22 11 -46 19 -53 20 -7 0 -10 4 -7 10 3 6 -1 7 -9 4 -9 -3 -16
-1 -16 5 0 6 5 11 12 11 6 0 8 3 5 6 -4 4 -13 1 -22 -6 -21 -18 -30 -6 -10 14
9 9 12 16 6 16 -5 0 -16 -7 -24 -15 -14 -13 -20 -13 -58 0 -24 9 -47 21 -51
28 -5 8 -8 9 -8 1 0 -13 -122 15 -128 29 -2 4 -7 5 -11 3 -4 -3 -41 4 -82 15
-63 17 -278 63 -391 84 -41 7 -392 15 -433 9z m346 -99 c103 -6 290 -44 312
-63 9 -8 17 -11 17 -5 0 6 12 8 26 5 19 -3 23 -7 12 -14 -9 -6 -6 -7 9 -3 18
5 199 -33 243 -52 18 -8 17 -7 63 -16 20 -5 37 -12 37 -17 0 -5 7 -6 17 -3 11
5 14 3 8 -6 -5 -10 -2 -11 12 -7 33 10 268 -95 281 -126 2 -4 10 -8 18 -8 8 0
14 -4 14 -10 0 -5 4 -9 9 -7 13 3 52 -44 45 -55 -3 -4 -2 -8 3 -7 22 4 43 -2
43 -12 0 -6 -8 -8 -17 -5 -16 5 -15 4 1 -9 10 -8 23 -12 28 -9 13 8 49 -26 41
-39 -3 -5 -2 -7 4 -4 5 3 21 -5 36 -19 15 -14 27 -22 27 -18 0 4 11 -3 25 -16
13 -12 23 -26 21 -29 -2 -3 8 -15 22 -25 15 -12 22 -14 17 -5 -5 8 24 -17 64
-56 68 -66 149 -171 143 -187 -1 -5 2 -8 6 -8 13 0 54 -98 46 -111 -4 -7 -3
-9 4 -5 10 6 44 -77 47 -114 0 -9 4 -20 7 -25 18 -30 40 -200 45 -350 6 -187
-10 -434 -30 -448 -8 -6 -9 -10 -1 -13 12 -5 -63 -448 -91 -535 -25 -80 -38
-108 -47 -103 -4 3 -5 -2 -2 -10 3 -8 -2 -27 -11 -43 -9 -15 -14 -20 -11 -10
4 11 2 16 -5 12 -6 -4 -8 -13 -5 -21 6 -15 -13 -64 -24 -64 -4 0 -12 -12 -18
-26 -7 -15 -17 -22 -24 -18 -7 5 -8 3 -3 -6 5 -8 1 -18 -10 -27 -11 -7 -15
-13 -11 -13 4 0 1 -6 -6 -14 -7 -7 -24 -26 -37 -41 -19 -22 -25 -25 -33 -14
-7 10 -8 9 -4 -6 7 -25 -50 -109 -66 -98 -7 3 -8 1 -4 -5 4 -6 -2 -19 -14 -29
-11 -10 -20 -23 -20 -30 0 -7 -3 -13 -8 -13 -4 0 -22 -23 -40 -50 -18 -28 -37
-48 -42 -45 -6 4 -7 -1 -3 -11 4 -12 3 -15 -5 -10 -7 4 -12 1 -12 -9 0 -20
-41 -76 -51 -69 -4 2 -11 -1 -15 -7 -5 -8 -3 -9 6 -4 8 5 11 3 8 -6 -3 -8 -11
-13 -17 -11 -7 1 -10 -2 -6 -8 4 -6 -7 -28 -23 -50 -22 -30 -31 -37 -40 -28
-9 9 -15 9 -24 -1 -11 -10 -9 -11 5 -5 16 6 18 3 15 -17 -2 -13 -9 -23 -15
-22 -6 1 -14 -4 -17 -13 -3 -8 -1 -12 4 -9 6 3 7 -1 4 -9 -3 -9 -11 -13 -17
-9 -6 3 -7 1 -3 -5 11 -18 -33 -71 -55 -67 -24 5 -33 -10 -20 -34 8 -15 5 -30
-15 -67 -42 -79 -50 -96 -77 -159 -50 -113 -60 -140 -59 -147 1 -4 -8 -29 -20
-55 -11 -26 -22 -55 -23 -63 -2 -8 -19 -76 -38 -150 -44 -171 -57 -261 -57
-409 l0 -118 -32 -9 c-18 -4 -40 -8 -48 -9 -8 0 -21 -4 -27 -8 -7 -5 -61 -11
-120 -14 l-106 -6 7 34 c4 19 7 149 6 289 0 140 5 293 11 340 6 47 13 202 14
345 4 272 12 405 24 405 4 0 8 7 8 15 0 16 20 87 34 120 4 11 16 38 25 60 10
22 18 42 19 45 9 36 30 78 37 74 4 -3 8 2 8 10 0 9 9 31 19 50 11 19 17 37 13
42 -4 4 -2 4 4 1 7 -4 18 1 25 10 12 15 12 16 -5 9 -18 -6 -19 -5 -5 11 22 25
71 113 64 113 -3 0 5 15 18 33 27 34 59 89 89 150 10 21 23 35 28 32 5 -3 8 3
8 12 -1 25 47 105 57 96 4 -5 5 -3 1 4 -9 15 24 84 37 76 6 -3 7 -1 3 5 -8 14
18 55 28 45 4 -4 5 -1 2 7 -7 19 38 113 49 103 4 -5 5 -3 2 3 -4 6 11 47 33
90 22 44 45 94 51 112 6 19 15 29 21 26 6 -4 8 -3 5 3 -4 6 10 48 29 94 20 46
38 93 40 104 2 11 12 54 23 95 46 187 52 264 21 303 -15 19 -17 27 -8 31 8 3
7 5 -3 3 -8 -1 -32 13 -53 31 -20 17 -33 32 -29 32 4 1 -21 15 -57 31 -81 38
-131 41 -188 11 -24 -12 -48 -19 -54 -16 -7 5 -8 2 -4 -5 8 -13 -34 -9 -99 9
-16 4 -58 11 -93 14 -61 6 -119 27 -134 50 -5 7 -8 7 -8 -2 0 -9 -10 -13 -27
-11 -16 2 -41 -4 -57 -13 -26 -14 -34 -14 -64 -1 -50 21 -132 4 -193 -39 -13
-9 -22 -8 -43 5 -41 27 -128 16 -165 -21 -8 -7 -25 -12 -37 -9 -13 2 -21 1
-19 -3 9 -15 -23 -19 -41 -6 -9 7 -27 11 -38 9 -18 -4 -19 -3 -6 7 12 9 11 10
-6 6 -11 -4 -38 -8 -60 -10 -21 -2 -56 -11 -76 -20 -35 -15 -39 -15 -70 3 -17
11 -35 18 -40 15 -5 -3 -19 1 -31 8 -49 32 -161 47 -197 28 -13 -7 -21 -7 -25
0 -9 15 -82 12 -116 -5 -29 -16 -55 -12 -44 6 3 5 0 6 -8 3 -8 -3 -18 -1 -22
5 -8 15 -108 14 -159 -1 -22 -7 -55 -22 -72 -35 -17 -13 -34 -20 -39 -15 -5 4
-5 1 -1 -5 4 -7 3 -13 -2 -13 -5 0 -9 -6 -9 -12 -1 -7 -6 -37 -12 -67 -14 -66
-14 -184 -1 -248 5 -26 11 -68 14 -93 2 -25 7 -54 11 -65 6 -16 5 -17 -4 -5
-6 8 -11 10 -11 5 0 -6 9 -19 21 -28 15 -14 19 -25 15 -45 -5 -21 -4 -24 5
-12 9 12 10 11 6 -7 -3 -13 1 -24 9 -27 7 -3 20 -19 29 -37 9 -17 12 -28 7
-25 -6 4 -8 -2 -5 -15 4 -16 8 -17 14 -7 7 11 9 11 9 -1 0 -8 16 -55 36 -105
31 -77 34 -94 23 -111 -11 -18 -11 -19 4 -6 15 12 17 11 19 -5 0 -11 2 -24 2
-31 1 -6 5 -15 9 -19 4 -4 1 -14 -6 -22 -9 -12 -9 -14 0 -9 8 5 14 -2 18 -20
3 -15 14 -55 26 -88 11 -33 22 -64 23 -70 1 -5 19 -42 39 -82 22 -42 34 -79
31 -90 -5 -15 -4 -16 5 -3 6 8 11 12 11 8 0 -3 3 -14 7 -24 5 -13 3 -15 -8
-10 -9 5 -9 3 2 -6 18 -15 30 -37 99 -181 29 -59 50 -111 46 -114 -3 -4 -6 0
-6 7 0 7 -2 11 -5 8 -9 -8 6 -38 16 -33 11 8 23 -41 13 -56 -4 -8 -3 -9 4 -5
7 4 12 5 12 2 0 -2 3 -12 7 -22 5 -13 3 -15 -8 -10 -10 5 -10 4 1 -6 20 -17
44 -97 69 -228 11 -58 30 -154 41 -213 11 -59 18 -113 14 -119 -4 -6 -3 -8 4
-4 21 13 27 -115 24 -568 -1 -253 -4 -461 -6 -463 -2 -2 -56 2 -120 9 -93 9
-116 15 -117 27 0 12 -3 11 -10 -4 -11 -23 -8 11 12 147 11 76 11 107 -5 235
-9 82 -19 168 -22 193 -8 88 -44 275 -65 342 -11 37 -17 73 -13 79 4 7 3 9 -3
6 -13 -8 -37 47 -30 67 4 11 1 13 -10 9 -12 -5 -14 -1 -8 17 5 16 4 20 -5 15
-7 -4 -13 1 -17 14 -3 12 -10 21 -16 21 -6 0 -8 3 -4 6 3 3 -3 16 -14 28 -12
11 -30 39 -41 60 -11 22 -27 46 -34 54 -8 7 -12 18 -8 23 3 5 0 8 -8 7 -8 -2
-12 4 -10 16 2 10 -1 15 -6 12 -14 -8 -35 21 -26 35 4 7 3 9 -3 6 -6 -4 -18 4
-27 18 -9 14 -13 25 -9 25 4 0 -3 7 -15 16 -12 8 -22 22 -22 30 0 8 -6 17 -14
20 -20 8 -28 34 -16 49 7 8 5 12 -5 12 -8 0 -11 -5 -8 -10 3 -6 2 -8 -3 -4 -5
3 -18 23 -29 44 -11 21 -24 41 -28 44 -5 4 -10 18 -10 31 -2 18 -6 24 -16 20
-9 -3 -12 -1 -7 6 4 7 2 12 -4 12 -7 0 -9 7 -6 17 4 10 4 14 0 10 -10 -9 -57
61 -49 73 4 6 -1 13 -9 16 -9 3 -16 12 -16 20 0 8 -4 14 -10 14 -5 0 -10 7
-10 16 0 9 -9 29 -21 45 -11 16 -18 29 -15 29 3 0 -8 21 -24 46 -16 26 -27 51
-24 55 3 5 1 9 -5 9 -11 0 -27 39 -30 76 0 8 -5 13 -10 10 -5 -3 -12 6 -17 22
-10 36 -7 28 -43 106 -18 37 -30 75 -27 83 3 8 2 12 -2 9 -10 -6 -64 142 -56
155 3 5 1 9 -4 9 -5 0 -12 10 -15 23 -3 12 -17 67 -31 122 -50 196 -74 433
-56 575 5 41 11 95 14 120 3 24 9 46 15 48 5 2 8 9 5 17 -7 18 32 140 95 298
6 16 15 26 20 23 5 -3 9 0 8 7 -1 34 4 48 15 41 6 -4 8 -3 5 3 -4 6 7 37 24
69 42 79 54 95 64 86 4 -4 5 1 2 10 -5 15 22 62 48 80 5 4 6 8 2 8 -5 0 6 19
25 42 18 23 38 51 43 63 6 11 16 21 23 21 24 3 27 4 16 12 -7 5 -5 14 9 27 11
11 17 14 13 8 -4 -7 -5 -13 -1 -13 3 0 10 11 15 25 5 14 16 25 24 25 8 0 18 5
22 12 5 7 3 8 -7 3 -12 -8 -12 -6 0 8 23 29 134 98 148 93 8 -3 12 -2 9 3 -15
23 153 91 389 157 87 25 167 43 177 41 10 -3 16 -2 13 2 -8 14 206 49 350 57
49 3 91 7 93 9 3 2 32 2 66 0 33 -3 95 -7 137 -10z m389 -1239 c0 -11 -19 -15
-25 -6 -3 5 1 10 9 10 9 0 16 -2 16 -4z m-263 -31 c-29 -26 -57 -33 -57 -14 0
6 7 9 15 5 9 -3 15 0 15 10 0 8 4 13 8 10 4 -2 14 -1 22 5 27 16 25 9 -3 -16z
m743 16 c0 -4 19 -13 43 -19 23 -6 29 -10 13 -8 -27 4 -76 -18 -121 -53 -11
-9 -17 -12 -13 -7 5 5 -1 15 -12 23 -11 8 -20 18 -20 22 0 12 50 32 62 25 7
-5 8 -2 3 6 -6 10 -4 12 8 7 10 -3 17 -2 17 3 0 6 5 10 10 10 6 0 10 -4 10 -9z
m-1874 -22 c11 -9 11 -15 3 -25 -6 -8 -15 -12 -19 -9 -5 3 -13 -8 -18 -24 -5
-15 -25 -43 -43 -61 -19 -18 -28 -29 -21 -26 16 9 15 1 -3 -35 -9 -16 -19 -28
-23 -25 -8 4 -10 -9 -16 -99 -6 -78 20 -130 66 -133 40 -3 48 -9 42 -30 -5
-13 -4 -14 4 -3 7 10 20 12 47 7 28 -6 45 -2 71 14 20 11 40 18 45 15 5 -4 6
0 3 8 -3 8 2 14 11 14 8 0 15 -5 15 -11 0 -13 109 -13 111 0 1 5 14 24 30 42
16 18 31 43 35 56 9 36 10 166 2 166 -19 0 -5 39 24 66 17 16 28 22 24 14 -5
-9 -2 -8 7 3 8 9 19 17 25 17 6 0 13 6 15 13 3 6 6 3 6 -9 1 -26 -33 -59 -51
-49 -10 6 -10 5 -1 -5 7 -8 9 -19 4 -29 -5 -9 -14 -52 -21 -95 -9 -62 -9 -88
0 -122 7 -24 16 -44 21 -44 5 0 15 -13 23 -29 11 -20 28 -32 58 -40 54 -15 89
-4 114 38 10 16 22 27 28 24 5 -4 7 1 3 10 -3 10 -4 24 0 33 4 12 11 8 34 -18
30 -35 37 -54 17 -42 -7 4 -9 3 -5 -1 12 -13 38 -15 30 -2 -3 6 9 2 28 -9 39
-24 105 -18 121 10 5 9 15 16 23 16 8 0 14 8 13 18 -3 33 2 52 13 52 6 0 9 -6
6 -14 -6 -15 46 -76 80 -94 35 -19 88 -15 108 8 14 16 21 18 28 8 6 -10 8 -9
4 3 -3 9 3 39 13 68 l17 52 8 -33 c4 -18 7 -37 6 -41 -1 -5 3 -6 8 -3 5 3 14
-1 20 -8 9 -11 9 -16 0 -22 -8 -4 -9 -3 -5 4 10 17 1 15 -13 -2 -10 -12 -8
-14 12 -12 13 2 29 6 35 10 6 3 14 1 19 -6 5 -8 31 -13 70 -14 34 0 60 3 57 7
-2 5 -12 5 -22 2 -9 -3 -15 -4 -12 -2 50 42 53 44 47 27 -3 -10 -2 -20 3 -23
5 -3 7 7 5 23 -2 15 1 35 6 43 8 12 12 11 27 -7 10 -12 29 -25 43 -29 13 -4
27 -13 32 -19 5 -8 9 -8 15 0 4 6 17 15 30 18 26 9 72 55 72 73 0 7 4 13 8 13
5 0 9 -22 10 -50 1 -58 12 -81 46 -99 22 -12 30 -11 64 7 22 11 43 19 46 16 3
-2 4 -1 2 2 -2 3 7 17 20 31 13 14 24 32 24 40 0 8 4 12 9 9 5 -3 9 4 10 17 0
12 2 54 4 94 1 40 1 70 -2 67 -5 -4 -31 51 -31 65 0 4 20 17 44 29 45 23 106
29 106 11 0 -5 4 -8 9 -5 15 10 73 -64 68 -85 -3 -12 -1 -17 6 -12 6 4 8 0 4
-10 -3 -10 -2 -17 3 -17 6 0 10 -21 10 -46 0 -32 -3 -43 -12 -38 -7 4 -8 3 -4
-5 7 -11 -13 -74 -52 -163 -11 -23 -28 -63 -38 -88 -10 -25 -23 -48 -29 -52
-5 -4 -6 -8 -2 -8 5 0 -3 -21 -17 -47 -13 -27 -44 -88 -67 -138 -24 -49 -60
-120 -80 -157 -20 -37 -34 -69 -31 -72 3 -3 0 -6 -6 -6 -7 0 -12 -6 -12 -14 0
-8 -8 -21 -19 -28 -19 -13 -21 -18 -21 -44 0 -8 -4 -13 -9 -10 -5 3 -8 -2 -7
-12 0 -9 -5 -16 -12 -14 -8 1 -11 -2 -7 -8 3 -5 2 -10 -4 -10 -6 0 -7 -7 -4
-17 5 -12 3 -14 -7 -8 -9 5 -11 4 -6 -3 9 -15 -18 -55 -29 -44 -5 4 -5 2 -2
-5 10 -16 -3 -44 -16 -36 -6 4 -8 0 -5 -9 4 -8 -4 -27 -16 -41 -18 -21 -25
-24 -36 -14 -10 10 -10 8 -1 -10 13 -26 14 -36 2 -29 -5 3 -12 -1 -15 -10 -3
-9 -2 -12 4 -9 11 7 -47 -106 -59 -115 -3 -3 -6 -9 -7 -15 -1 -29 -17 -64 -26
-59 -6 4 -8 1 -6 -7 3 -8 0 -23 -5 -34 -6 -11 -12 -27 -13 -35 -2 -8 -9 -19
-16 -25 -7 -5 -13 -16 -14 -22 -2 -30 -5 -34 -16 -27 -7 5 -9 2 -5 -9 3 -9 -8
-44 -25 -79 -18 -35 -32 -65 -33 -68 -3 -24 -94 -188 -100 -183 -4 5 -6 1 -2
-8 3 -9 -9 -57 -26 -105 l-32 -89 1 -265 c0 -254 2 -272 33 -443 26 -143 32
-201 30 -296 -1 -65 -4 -131 -7 -146 l-5 -28 -266 6 c-146 3 -295 12 -331 18
-36 6 -73 11 -83 11 -12 -1 -16 4 -13 16 3 9 10 58 16 107 9 88 14 122 44 350
48 361 41 573 -28 837 -19 72 -84 264 -102 300 -8 15 -11 35 -7 44 4 10 2 15
-3 11 -14 -8 -68 108 -58 124 4 7 3 10 -3 6 -11 -7 -69 111 -65 132 2 7 -1 10
-6 7 -14 -9 -32 38 -20 55 7 11 8 9 3 -6 -5 -15 -3 -17 6 -8 15 15 3 34 -18
26 -13 -5 -15 -2 -10 11 4 9 3 15 -1 12 -8 -5 -72 97 -72 113 0 5 -11 30 -26
56 -14 26 -23 54 -20 62 4 9 1 11 -6 7 -8 -5 -9 -1 -4 12 4 10 4 15 0 11 -11
-11 -84 150 -78 170 5 15 4 16 -5 3 -7 -10 -11 -11 -11 -3 0 7 -18 50 -40 97
-22 46 -40 91 -40 100 0 9 -4 16 -9 16 -13 0 -74 127 -66 139 3 6 2 11 -4 11
-6 0 -16 19 -22 43 -7 23 -16 47 -20 52 -4 6 -16 44 -27 85 -19 76 -19 84 3
234 9 62 50 141 92 175 31 26 44 31 71 27 19 -3 40 -10 48 -17z m360 -10 c6
-5 15 -5 19 -1 5 4 5 1 1 -6 -5 -7 -10 -11 -13 -8 -7 7 -32 -17 -27 -26 2 -4
0 -9 -6 -13 -5 -3 -10 0 -10 7 0 10 -2 10 -8 1 -5 -7 -15 3 -31 29 l-23 40 44
-7 c23 -4 48 -11 54 -16z m624 6 c20 -11 21 -14 7 -15 -10 0 -25 7 -33 15 -19
19 -7 19 26 0z m239 -2 c-8 -10 -21 -24 -29 -31 -8 -8 -10 -11 -3 -7 9 4 8 -5
-3 -30 -8 -20 -18 -62 -22 -93 l-8 -57 -15 60 c-9 33 -19 69 -23 80 -6 15 -5
16 2 6 8 -11 11 -10 14 9 1 13 9 25 17 28 9 3 11 0 6 -8 -5 -9 -4 -11 4 -6 6
4 9 12 6 17 -4 5 5 13 18 18 14 6 28 15 32 20 3 6 9 11 12 11 3 0 -1 -8 -8
-17z m241 7 c0 -5 -7 -10 -16 -10 -8 0 -13 -4 -10 -9 3 -5 0 -14 -8 -20 -10
-9 -15 -8 -19 4 -4 9 3 20 21 29 33 18 32 18 32 6z m-1313 -50 c-18 -43 -22
-48 -29 -30 -4 11 -5 28 -2 38 5 14 4 15 -5 2 -6 -8 -11 -12 -11 -8 0 3 -3 14
-7 24 -4 12 -3 15 5 10 7 -4 12 -3 12 1 0 5 13 10 29 11 l29 2 -21 -50z m-337
37 c0 -2 -10 -12 -22 -23 l-23 -19 19 23 c18 21 26 27 26 19z m1482 -27 c-29
-24 -71 -122 -78 -184 -11 -94 41 -165 101 -138 14 6 25 8 25 3 0 -10 -34 -21
-66 -21 -28 0 -77 39 -70 56 3 8 2 14 -2 14 -13 0 6 138 28 206 12 35 27 62
33 61 7 -1 11 5 9 15 -2 12 3 15 19 11 l22 -6 -21 -17z m224 -39 c-21 -41 -35
-115 -25 -133 4 -8 10 -27 13 -42 3 -16 8 -31 12 -35 4 -3 4 2 1 12 -6 16 -3
15 22 -5 22 -18 26 -27 19 -40 -5 -10 -14 -18 -20 -18 -7 0 -6 5 2 15 11 13
10 14 -4 9 -9 -3 -16 -12 -16 -19 0 -7 -6 -15 -12 -18 -19 -6 -38 3 -38 19 0
8 -6 13 -12 12 -7 -2 -13 5 -13 14 0 9 -4 20 -9 25 -5 5 -6 2 -1 -7 6 -11 5
-12 -3 -5 -13 12 4 73 23 87 6 5 4 8 -5 8 -13 0 -13 2 -1 9 12 8 12 12 2 24
-6 8 -10 28 -7 44 2 15 5 31 5 36 1 4 8 7 17 7 8 0 13 4 9 10 -3 5 2 18 12 29
15 18 19 19 31 7 12 -11 11 -18 -2 -45z m-1253 -28 c3 -19 -2 -27 -27 -40 -18
-9 -26 -18 -18 -21 10 -3 10 -7 0 -19 -15 -18 -33 -50 -47 -80 -6 -13 -12 -23
-14 -23 -9 0 -6 69 3 75 6 3 8 11 5 16 -4 5 0 9 7 9 10 0 10 2 -1 9 -8 6 -10
14 -5 22 5 8 7 22 5 33 -2 12 1 16 10 10 9 -5 10 -2 6 10 -4 9 0 31 9 49 l17
31 22 -29 c13 -15 25 -39 28 -52z m636 66 c17 -6 31 -15 31 -21 0 -5 5 -6 10
-3 15 9 12 1 -15 -51 -14 -26 -25 -59 -26 -73 -1 -23 -2 -21 -10 9 -12 44 -29
80 -48 103 -14 17 -14 20 4 33 23 17 15 16 54 3z m778 -5 c2 -7 -3 -19 -12
-28 -9 -9 -13 -20 -10 -26 4 -6 1 -27 -6 -48 l-12 -37 -18 55 c-10 31 -14 56
-8 58 5 2 9 8 9 13 0 4 -8 6 -17 2 -15 -5 -14 -3 2 11 22 17 66 18 72 0z
m-964 -7 c-2 -4 -8 -5 -13 -2 -5 3 -11 -3 -15 -14 -10 -32 -67 -128 -62 -104
3 12 0 24 -7 26 -8 3 -7 9 3 21 12 14 12 16 -3 10 -31 -12 -18 35 15 55 29 18
92 24 82 8z m332 -7 c3 -5 1 -10 -4 -10 -6 0 -11 5 -11 10 0 6 2 10 4 10 3 0
8 -4 11 -10z m292 -24 c-3 -8 -1 -16 6 -19 17 -5 20 -156 2 -183 -16 -25 -47
-35 -66 -23 -21 13 -18 116 5 164 24 49 68 100 53 61z m-1280 -146 c-5 -88
-20 -126 -59 -146 l-28 -15 0 41 c0 22 3 40 8 40 4 0 7 23 8 50 0 28 6 56 14
63 10 10 11 9 5 -3 -7 -12 -6 -13 6 -2 12 11 12 14 0 21 -11 7 -9 13 8 30 11
11 21 27 21 34 -1 6 -7 1 -15 -13 -20 -35 -19 -16 2 23 l17 32 9 -40 c4 -22 7
-74 4 -115z m1682 136 c9 -11 9 -16 0 -22 -8 -5 -9 -3 -4 6 5 9 4 11 -3 6 -7
-4 -12 -15 -12 -25 0 -10 -7 -24 -15 -31 -13 -11 -13 -8 -4 21 6 19 12 40 15
47 4 16 9 15 23 -2z m-1228 -13 c12 -14 12 -16 0 -9 -9 6 -12 5 -9 -5 3 -8 -2
-20 -10 -28 -13 -13 -16 -13 -28 4 -16 22 -1 47 23 38 11 -4 14 -2 9 5 -11 18
0 14 15 -5z m212 -22 c-15 -22 -30 -38 -32 -36 -3 4 49 75 56 75 2 0 -8 -18
-24 -39z m74 12 c-4 -3 -3 -11 2 -17 4 -6 11 -24 15 -39 5 -22 4 -27 -6 -21
-10 6 -10 4 1 -9 11 -14 11 -29 1 -84 -6 -36 -15 -74 -20 -84 -26 -47 -80 22
-78 98 1 26 5 40 11 36 6 -4 8 0 4 10 -4 10 1 22 11 29 9 7 18 19 20 26 3 17
32 62 40 62 3 0 2 -3 -1 -7z m213 0 c-1 -16 -27 -42 -35 -35 -5 4 -5 -1 -2
-11 4 -11 4 -24 0 -30 -8 -14 -10 -66 -2 -61 4 2 9 -14 13 -35 6 -37 57 -115
70 -106 3 3 2 0 -2 -5 -6 -7 -17 -7 -34 -1 -14 5 -29 7 -34 3 -4 -4 -4 -2 -1
5 4 6 17 9 29 5 14 -3 19 -1 14 6 -3 6 -17 9 -31 6 -17 -3 -28 3 -39 18 -19
27 -21 42 -3 32 10 -6 10 -4 0 7 -16 16 -17 119 -2 119 5 0 8 4 4 9 -8 14 26
81 42 81 7 0 13 -3 13 -7z m548 -60 c-1 -47 -2 -47 -11 -16 -5 18 -7 39 -4 47
11 28 16 17 15 -31z m-1107 -43 c-26 -37 -31 -40 -31 -20 0 12 5 40 12 62 11
38 12 39 31 20 19 -19 19 -20 -12 -62z m1325 -44 c-4 -25 -11 -46 -16 -46 -5
0 -6 -7 -3 -17 5 -12 3 -14 -7 -8 -10 6 -12 4 -7 -8 3 -8 0 -21 -8 -27 -10 -8
-18 -3 -34 23 -23 37 -28 73 -9 61 6 -4 8 -3 5 4 -10 15 3 43 16 35 6 -4 8 0
4 10 -3 10 -3 17 1 17 4 0 16 15 26 33 l19 32 10 -32 c5 -17 6 -52 3 -77z
m-703 59 c18 -39 23 -130 7 -140 -6 -4 -7 1 -3 12 6 16 5 17 -12 3 -17 -14
-18 -13 -13 8 4 12 2 20 -2 17 -14 -9 -32 64 -26 101 9 44 28 43 49 -1z m-539
13 c-6 -10 -3 -9 8 0 15 12 18 9 28 -29 12 -43 7 -89 -10 -89 -14 0 -12 17 3
23 6 3 2 4 -10 4 -28 -1 -27 -1 -5 -34 12 -19 13 -25 3 -18 -11 6 -13 4 -8 -7
3 -9 -2 -23 -12 -32 -24 -22 -34 -20 -28 4 3 11 1 17 -4 14 -6 -3 -9 -15 -7
-27 2 -16 -2 -22 -17 -22 -13 0 -21 8 -23 22 -4 31 17 105 28 98 6 -4 7 1 3
11 -5 14 -3 16 11 11 14 -6 16 -3 11 13 -4 13 -2 20 6 20 7 0 9 3 6 6 -6 7 10
44 19 44 3 0 2 -6 -2 -12z m-255 -108 c-12 -47 -20 -57 -53 -70 -48 -18 -54 2
-19 69 17 33 34 57 37 54 3 -4 6 1 6 10 0 10 5 17 10 17 6 0 9 3 9 8 -5 29 5
19 11 -13 5 -22 4 -55 -1 -75z m-355 -4 c-4 -22 -7 -50 -6 -61 1 -16 -1 -17
-8 -5 -11 17 -13 80 -4 104 12 31 25 4 18 -38z m173 -38 c-3 -8 -6 -5 -6 6 -1
11 2 17 5 13 3 -3 4 -12 1 -19z m-4 -37 c-5 -20 -33 -38 -33 -21 0 6 5 10 10
10 6 0 9 3 9 8 -2 14 1 22 10 22 5 0 7 -9 4 -19z m-70 -743 c-2 -5 1 -8 6 -8
6 0 11 -9 11 -20 0 -11 4 -20 9 -20 5 0 13 -10 17 -22 3 -13 28 -67 55 -120
27 -54 46 -98 43 -98 -3 0 2 -7 10 -16 9 -8 14 -20 11 -25 -4 -5 -2 -9 2 -9
10 0 69 -121 65 -132 -1 -5 3 -8 9 -8 6 0 8 -7 5 -16 -3 -8 -2 -12 4 -9 6 3
10 3 11 -2 2 -28 9 -47 18 -52 11 -7 95 -214 134 -331 14 -43 23 -90 21 -110
-3 -29 -2 -30 4 -10 7 22 10 17 21 -35 45 -215 54 -455 26 -680 -8 -66 -18
-142 -21 -170 -30 -246 -29 -253 -29 177 l0 413 -27 115 c-15 63 -34 158 -42
210 -9 52 -27 139 -41 193 -14 54 -22 103 -19 109 4 6 3 8 -3 5 -9 -6 -54 101
-56 136 -1 9 -4 17 -8 17 -6 0 -33 55 -34 70 -1 3 -11 24 -23 48 -12 23 -19
42 -15 42 5 0 4 4 -2 8 -5 4 -26 41 -46 82 -20 41 -55 113 -77 160 -41 84 -72
165 -71 185 0 6 9 -8 18 -30 10 -22 16 -43 14 -47z m1240 -1145 c-2 -209 -29
-702 -40 -733 -3 -8 -14 32 -24 90 -44 256 -37 675 11 705 6 4 8 11 4 16 -4 7
43 139 50 139 1 0 0 -98 -1 -217z m825 88 c3 -8 -1 -12 -9 -9 -7 2 -15 10 -17
17 -3 8 1 12 9 9 7 -2 15 -10 17 -17z m-170 -43 c-2 -5 -8 -9 -13 -9 -5 0 -11
4 -13 9 -1 5 4 9 13 9 9 0 14 -4 13 -9z m-691 -835 c-3 -10 -5 -4 -5 12 0 17
2 24 5 18 2 -7 2 -21 0 -30z m503 -440 c0 -27 -52 -85 -72 -80 -10 3 -22 -2
-27 -10 -5 -10 -24 -16 -49 -17 -22 0 -38 -5 -35 -10 3 -4 -11 -7 -31 -4 -20
2 -36 0 -36 -5 0 -12 -343 -4 -760 17 -162 9 -347 16 -410 16 -150 0 -189 7
-200 34 -6 14 -9 16 -11 6 -1 -8 -1 -19 0 -24 1 -5 -6 -3 -16 5 -36 28 -54 54
-51 74 3 17 11 20 53 21 75 3 270 -17 273 -26 2 -5 18 -7 35 -4 22 4 28 3 19
-4 -11 -7 -8 -10 12 -14 16 -3 23 -1 19 5 -4 7 9 8 38 3 132 -21 292 -28 629
-29 350 0 379 1 440 20 36 11 72 22 80 24 8 2 23 12 33 21 15 13 24 14 43 6
13 -6 24 -18 24 -25z m-1425 -189 c225 -6 582 -21 835 -35 267 -15 456 3 580
55 8 3 21 2 29 -3 20 -13 -7 -65 -37 -69 -12 -2 -19 -8 -16 -14 4 -6 -1 -8
-16 -3 -17 5 -21 4 -15 -6 6 -9 3 -11 -8 -6 -10 3 -17 2 -17 -3 0 -28 -1222 5
-1509 41 -90 11 -121 22 -121 42 0 29 21 35 73 20 31 -8 121 -16 222 -19z
m-105 -148 c212 -16 815 -36 1115 -39 345 -2 351 -2 396 21 50 24 84 28 95 10
17 -28 -57 -57 -191 -76 -56 -8 -604 -7 -795 2 -69 3 -181 8 -250 11 -365 15
-476 23 -514 39 -31 13 -36 19 -27 30 8 10 27 13 59 10 26 -2 76 -6 112 -8z
m108 -156 c114 -5 241 -11 282 -14 167 -11 1111 -16 1105 -6 -3 5 -2 10 4 10
19 0 23 -21 8 -44 -21 -31 -78 -37 -265 -26 -82 5 -403 10 -713 11 -455 1
-573 4 -612 16 -30 9 -45 18 -41 25 5 8 2 9 -9 5 -12 -4 -17 -1 -17 12 0 24
10 32 32 25 10 -3 112 -9 226 -14z m792 -171 c294 -6 543 -11 553 -10 13 0 17
-6 15 -22 -2 -15 -13 -24 -38 -30 -44 -10 -392 -18 -386 -8 3 4 -8 5 -24 3
-15 -2 -176 1 -357 8 -180 6 -424 14 -542 16 -223 4 -256 11 -227 43 17 19
121 19 1006 0z m-260 -154 c6 -3 411 -14 602 -16 108 -1 136 -4 132 -14 -3 -7
-20 -19 -37 -27 -45 -19 -409 -16 -657 6 -107 9 -222 19 -255 21 -33 3 -145 9
-248 14 -123 6 -193 13 -200 21 -9 9 62 10 323 5 184 -3 337 -8 340 -10z
m-185 -131 c44 -3 87 -5 95 -6 8 0 87 -7 175 -14 88 -8 202 -14 254 -14 l93 0
-15 -22 c-8 -13 -23 -22 -33 -20 -15 2 -16 1 -5 -7 20 -13 -4 -42 -26 -34 -10
4 -14 2 -10 -4 8 -13 -91 -66 -105 -56 -7 3 -8 1 -4 -5 4 -7 -9 -15 -36 -22
-24 -6 -59 -15 -78 -21 -55 -14 -62 -13 -48 11 12 18 44 36 59 32 5 -1 5 22 0
50 0 4 -14 6 -30 5 -16 -1 -27 -6 -23 -11 3 -5 -5 -7 -16 -4 -12 4 -25 1 -29
-4 -3 -6 -1 -8 5 -4 6 3 13 2 16 -2 3 -5 -5 -14 -18 -20 -29 -13 -30 6 -3 36
9 10 17 24 17 30 0 6 8 13 18 16 13 4 13 4 -3 3 -11 -1 -26 2 -33 6 -11 8 -42
-13 -42 -28 0 -4 -6 -13 -14 -21 -11 -10 -15 -11 -18 -2 -3 8 -14 5 -34 -9
l-30 -22 -18 33 c-17 31 -13 72 6 60 5 -3 4 -11 -3 -20 -8 -10 -8 -14 0 -14
10 0 15 14 12 34 -1 5 4 13 11 19 9 6 8 7 -5 3 -15 -5 -17 -2 -12 14 4 11 2
20 -4 20 -5 0 -16 3 -25 6 -11 4 -16 1 -16 -10 0 -18 -25 -22 -36 -4 -5 7 -2
8 7 3 10 -6 11 -5 3 4 -11 12 -44 5 -44 -10 0 -4 -7 -6 -15 -3 -8 4 -12 11 -8
17 3 6 1 7 -5 3 -6 -4 -24 0 -39 9 l-28 16 30 -6 c17 -3 66 -8 110 -11z m-118
-40 c-3 -3 -12 -4 -19 -1 -8 3 -5 6 6 6 11 1 17 -2 13 -5z m127 -19 c-4 -8
-11 -15 -16 -15 -6 0 -5 6 2 15 7 8 14 15 16 15 2 0 1 -7 -2 -15z m176 -124
c0 -5 -7 -12 -16 -15 -14 -5 -15 -4 -4 9 14 17 20 19 20 6z"/>
<path d="M3600 6026 c0 -2 7 -7 16 -10 8 -3 12 -2 9 4 -6 10 -25 14 -25 6z"/>
<path d="M2076 5859 c4 -7 44 0 44 7 0 2 -11 3 -24 2 -14 -1 -23 -5 -20 -9z"/>
<path d="M1940 5780 c-8 -5 -12 -12 -9 -15 4 -3 12 1 19 10 14 17 11 19 -10 5z"/>
<path d="M1820 5635 c-9 -11 -10 -19 -3 -26 8 -8 13 -7 18 2 5 8 4 10 -3 5
-16 -9 -15 7 0 22 7 7 9 12 6 12 -3 0 -11 -7 -18 -15z"/>
<path d="M4484 5618 c-4 -7 -4 -10 1 -6 4 4 15 2 24 -5 14 -11 14 -10 2 6 -16
20 -18 21 -27 5z"/>
<path d="M4164 5605 c-4 -8 -10 -12 -15 -9 -5 3 -9 -3 -9 -13 0 -14 -2 -15 -9
-5 -12 20 -20 -6 -10 -38 4 -14 8 -18 8 -10 1 12 5 11 19 -5 9 -11 35 -36 57
-54 22 -19 39 -39 37 -44 -1 -5 2 -6 8 -2 6 4 15 -7 21 -24 6 -17 14 -29 18
-27 10 6 53 -61 56 -87 4 -35 5 -37 13 -34 4 1 9 -2 11 -8 2 -5 17 -33 33 -62
16 -29 27 -57 24 -62 -3 -5 1 -15 10 -22 10 -8 13 -21 9 -37 -3 -13 -2 -21 3
-18 5 3 17 -32 28 -77 15 -64 19 -120 19 -252 -1 -189 -22 -324 -77 -485 -16
-47 -35 -107 -44 -133 -8 -27 -19 -45 -25 -41 -6 3 -9 0 -8 -7 2 -8 -1 -25 -5
-39 -11 -33 -108 -234 -117 -240 -3 -3 -9 -15 -13 -28 -4 -12 -12 -20 -17 -17
-5 3 -6 -2 -2 -11 5 -13 3 -15 -7 -9 -10 6 -12 4 -7 -8 3 -10 2 -17 -3 -17 -6
0 -10 -8 -10 -19 0 -25 -26 -47 -33 -29 -3 7 -5 2 -4 -12 1 -18 -3 -25 -15
-24 -15 1 -16 -2 -6 -20 10 -20 10 -20 -7 -6 -17 14 -18 14 -6 -7 7 -15 8 -23
1 -23 -5 0 -10 -7 -10 -16 0 -9 -5 -12 -12 -8 -7 4 -8 3 -4 -4 8 -14 -18 -55
-28 -45 -4 4 -4 -1 0 -11 6 -15 4 -17 -6 -11 -9 5 -11 4 -6 -3 6 -10 -55 -135
-73 -152 -3 -3 -7 -12 -9 -20 -2 -8 -15 -39 -29 -69 -18 -38 -23 -56 -14 -59
6 -2 18 -10 26 -19 8 -8 15 -11 15 -7 0 5 5 3 12 -4 18 -18 28 -15 28 8 0 11
4 20 8 20 5 0 9 6 9 13 2 24 59 127 67 120 5 -5 6 1 2 12 -4 14 3 30 23 52 16
18 27 34 24 37 -4 4 17 44 70 131 7 11 16 23 20 26 5 3 8 9 8 13 -2 9 28 66
53 101 11 16 21 36 23 44 1 8 6 17 11 20 5 3 12 16 16 29 4 12 11 22 15 22 5
0 11 14 15 31 4 20 10 28 18 23 7 -5 9 -2 5 9 -3 8 1 21 9 27 8 7 14 19 14 26
0 7 7 32 16 55 13 30 19 37 26 27 7 -9 8 -7 4 8 -5 17 16 84 54 169 15 35 49
159 77 281 23 105 26 140 26 294 0 272 -41 420 -190 683 -7 12 -11 28 -8 35 3
7 0 10 -5 7 -6 -3 -10 -1 -10 5 0 6 -4 8 -10 5 -6 -3 -7 1 -4 9 3 9 10 14 14
11 5 -3 11 -1 14 4 7 11 -13 9 -31 -2 -13 -8 -90 69 -85 85 1 5 -1 7 -6 4 -5
-3 -27 10 -50 29 -45 39 -50 41 -58 20z"/>
<path d="M4084 5580 c0 -13 4 -16 10 -10 7 7 7 13 0 20 -6 6 -10 3 -10 -10z"/>
<path d="M4570 5556 c0 -2 7 -7 16 -10 8 -3 12 -2 9 4 -6 10 -25 14 -25 6z"/>
<path d="M4385 5509 c-4 -6 -5 -12 -2 -15 2 -3 7 2 10 11 7 17 1 20 -8 4z"/>
<path d="M4169 5488 c0 -2 -2 -11 -4 -21 -3 -15 -1 -16 11 -6 7 6 11 15 8 20
-5 9 -13 12 -15 7z"/>
<path d="M4740 5426 c0 -2 7 -9 15 -16 9 -7 15 -8 15 -2 0 5 -7 12 -15 16 -8
3 -15 4 -15 2z"/>
<path d="M1657 5403 c3 -7 6 -13 8 -13 2 0 5 6 8 13 3 8 -1 14 -8 14 -7 0 -11
-6 -8 -14z"/>
<path d="M4745 5380 c3 -5 8 -10 11 -10 2 0 4 5 4 10 0 6 -5 10 -11 10 -5 0
-7 -4 -4 -10z"/>
<path d="M4814 5300 c0 -13 4 -16 10 -10 7 7 7 13 0 20 -6 6 -10 3 -10 -10z"/>
<path d="M2118 4933 c7 -3 16 -2 19 1 4 3 -2 6 -13 5 -11 0 -14 -3 -6 -6z"/>
<path d="M2378 4933 c7 -3 16 -2 19 1 4 3 -2 6 -13 5 -11 0 -14 -3 -6 -6z"/>
<path d="M3178 4933 c7 -3 16 -2 19 1 4 3 -2 6 -13 5 -11 0 -14 -3 -6 -6z"/>
<path d="M2020 4870 c0 -5 5 -10 11 -10 5 0 7 5 4 10 -3 6 -8 10 -11 10 -2 0
-4 -4 -4 -10z"/>
<path d="M2750 4871 c0 -5 7 -12 16 -15 14 -5 15 -4 4 9 -14 17 -20 19 -20 6z"/>
<path d="M1421 4394 c0 -11 3 -14 6 -6 3 7 2 16 -1 19 -3 4 -6 -2 -5 -13z"/>
<path d="M4983 4395 c-3 -9 -3 -18 -1 -21 3 -3 8 4 11 16 6 23 -1 27 -10 5z"/>
<path d="M4371 4304 c0 -11 3 -14 6 -6 3 7 2 16 -1 19 -3 4 -6 -2 -5 -13z"/>
<path d="M2080 4116 c0 -2 8 -10 18 -17 15 -13 16 -12 3 4 -13 16 -21 21 -21
13z"/>
<path d="M4260 3919 c0 -5 -5 -7 -11 -3 -7 4 -7 -2 1 -17 18 -34 24 -38 15
-10 -5 16 -4 21 4 17 7 -5 9 -1 5 8 -7 18 -14 21 -14 5z"/>
<path d="M1560 3901 c0 -5 5 -13 10 -16 6 -3 10 -2 10 4 0 5 -4 13 -10 16 -5
3 -10 2 -10 -4z"/>
<path d="M4379 3832 c12 -9 12 -14 -3 -39 l-17 -28 21 24 c22 26 22 42 -1 49
-12 3 -12 2 0 -6z"/>
<path d="M4270 3626 c0 -8 4 -17 9 -20 5 -4 7 3 4 14 -6 23 -13 26 -13 6z"/>
<path d="M2280 3575 c0 -5 5 -17 10 -25 5 -8 10 -10 10 -5 0 6 -5 17 -10 25
-5 8 -10 11 -10 5z"/>
<path d="M3951 3494 c0 -11 3 -14 6 -6 3 7 2 16 -1 19 -3 4 -6 -2 -5 -13z"/>
<path d="M3960 3459 c0 -5 5 -7 10 -4 6 3 10 8 10 11 0 2 -4 4 -10 4 -5 0 -10
-5 -10 -11z"/>
<path d="M3882 3377 c-8 -10 -6 -13 7 -13 11 0 17 6 14 13 -3 7 -6 13 -8 13
-1 0 -7 -6 -13 -13z"/>
<path d="M1826 3335 c-9 -26 -7 -32 5 -12 6 10 9 21 6 23 -2 3 -7 -2 -11 -11z"/>
<path d="M4107 3333 c-4 -3 -7 -11 -7 -17 0 -6 5 -5 12 2 6 6 9 14 7 17 -3 3
-9 2 -12 -2z"/>
<path d="M2420 3219 c0 -5 5 -7 10 -4 6 3 10 8 10 11 0 2 -4 4 -10 4 -5 0 -10
-5 -10 -11z"/>
<path d="M4057 3218 c-2 -7 -1 -22 3 -33 6 -16 8 -13 7 13 0 35 -2 39 -10 20z"/>
<path d="M3848 3163 c7 -3 16 -2 19 1 4 3 -2 6 -13 5 -11 0 -14 -3 -6 -6z"/>
<path d="M4490 3105 c7 -8 8 -20 4 -27 -5 -9 -4 -10 4 -3 18 17 18 37 -1 40
-14 3 -16 1 -7 -10z"/>
<path d="M2502 3020 c0 -14 2 -19 5 -12 2 6 2 18 0 25 -3 6 -5 1 -5 -13z"/>
<path d="M4415 3009 c-4 -6 -5 -12 -2 -15 2 -3 7 2 10 11 7 17 1 20 -8 4z"/>
<path d="M2300 2605 c0 -5 5 -17 10 -25 5 -8 10 -10 10 -5 0 6 -5 17 -10 25
-5 8 -10 11 -10 5z"/>
<path d="M3946 2093 c-6 -14 -5 -15 5 -6 7 7 10 15 7 18 -3 3 -9 -2 -12 -12z"/>
<path d="M2457 2011 c-4 -17 -3 -21 5 -13 5 5 8 16 6 23 -3 8 -7 3 -11 -10z"/>
<path d="M2246 4832 c-3 -4 4 -9 15 -9 23 -2 25 3 4 10 -8 4 -16 3 -19 -1z"/>
<path d="M2126 4785 c-18 -19 -20 -31 -6 -40 6 -4 7 1 3 11 -5 13 -3 16 10 11
19 -7 34 10 19 25 -6 6 -15 4 -26 -7z"/>
<path d="M4188 4763 c7 -3 16 -2 19 1 4 3 -2 6 -13 5 -11 0 -14 -3 -6 -6z"/>
<path d="M4135 4741 c-3 -5 -1 -12 5 -16 5 -3 10 1 10 9 0 18 -6 21 -15 7z"/>
<path d="M2635 4659 c-4 -6 -5 -12 -2 -15 2 -3 7 2 10 11 7 17 1 20 -8 4z"/>
<path d="M2101 4464 c0 -11 3 -14 6 -6 3 7 2 16 -1 19 -3 4 -6 -2 -5 -13z"/>
<path d="M4140 4465 c-7 -9 -8 -15 -2 -15 5 0 12 7 16 15 3 8 4 15 2 15 -2 0
-9 -7 -16 -15z"/>
<path d="M4273 4473 c-15 -5 -17 -23 -4 -23 5 0 11 7 15 15 3 8 4 15 3 14 -1
0 -8 -3 -14 -6z"/>
<path d="M2914 4429 c-3 -6 -2 -15 3 -20 5 -5 9 -1 9 11 0 23 -2 24 -12 9z"/>
<path d="M3832 4426 c7 -8 15 -12 17 -11 5 6 -10 25 -20 25 -5 0 -4 -6 3 -14z"/>
<path d="M3750 4421 c0 -6 4 -13 10 -16 6 -3 7 1 4 9 -7 18 -14 21 -14 7z"/>
<path d="M2728 4353 c7 -3 16 -2 19 1 4 3 -2 6 -13 5 -11 0 -14 -3 -6 -6z"/>
<path d="M2838 4343 c7 -3 16 -2 19 1 4 3 -2 6 -13 5 -11 0 -14 -3 -6 -6z"/>
<path d="M2798 4333 c7 -3 16 -2 19 1 4 3 -2 6 -13 5 -11 0 -14 -3 -6 -6z"/>
<path d="M4033 3915 c-7 -8 -9 -16 -4 -19 5 -3 12 1 15 10 8 22 4 25 -11 9z"/>
<path d="M2452 3605 c0 -16 2 -22 5 -12 2 9 2 23 0 30 -3 6 -5 -1 -5 -18z"/>
<path d="M3702 3340 c0 -14 2 -19 5 -12 2 6 2 18 0 25 -3 6 -5 1 -5 -13z"/>
<path d="M3690 3301 c0 -6 4 -13 10 -16 6 -3 7 1 4 9 -7 18 -14 21 -14 7z"/>
<path d="M2616 3242 c-3 -5 1 -9 9 -9 8 0 12 4 9 9 -3 4 -7 8 -9 8 -2 0 -6 -4
-9 -8z"/>
<path d="M2775 2949 c-4 -6 -5 -12 -2 -15 2 -3 7 2 10 11 7 17 1 20 -8 4z"/>
<path d="M2861 2414 c0 -11 3 -14 6 -6 3 7 2 16 -1 19 -3 4 -6 -2 -5 -13z"/>
<path d="M3371 2304 c0 -11 3 -14 6 -6 3 7 2 16 -1 19 -3 4 -6 -2 -5 -13z"/>
<path d="M3416 4755 c-9 -26 -7 -32 5 -12 6 10 9 21 6 23 -2 3 -7 -2 -11 -11z"/>
<path d="M3779 4803 c-7 -48 -7 -66 0 -54 5 8 7 21 3 29 -3 10 -1 13 6 8 8 -5
10 -2 6 8 -7 17 -13 21 -15 9z"/>
<path d="M3788 4533 c7 -3 16 -2 19 1 4 3 -2 6 -13 5 -11 0 -14 -3 -6 -6z"/>
<path d="M2496 4713 c-6 -14 -5 -15 5 -6 7 7 10 15 7 18 -3 3 -9 -2 -12 -12z"/>
<path d="M2440 4599 c0 -5 5 -7 10 -4 6 3 10 8 10 11 0 2 -4 4 -10 4 -5 0 -10
-5 -10 -11z"/>
<path d="M3904 4759 c-3 -6 2 -18 12 -27 17 -16 17 -16 5 0 -7 9 -10 22 -6 28
3 5 4 10 1 10 -3 0 -8 -5 -12 -11z"/>
<path d="M2930 4755 c-7 -9 -11 -17 -9 -20 3 -2 10 5 17 15 14 24 10 26 -8 5z"/>
<path d="M2911 4711 c-8 -5 -9 -11 -3 -15 5 -3 12 1 16 9 6 17 6 18 -13 6z"/>
<path d="M3593 4550 c-13 -5 -23 -11 -23 -14 0 -7 40 6 46 15 6 10 6 10 -23
-1z"/>
<path d="M2750 4715 c0 -8 4 -15 10 -15 5 0 7 7 4 15 -4 8 -8 15 -10 15 -2 0
-4 -7 -4 -15z"/>
<path d="M3022 4598 c-16 -16 -15 -25 2 -31 10 -4 13 2 12 19 0 13 -1 24 -1
24 -1 0 -6 -5 -13 -12z"/>
<path d="M2726 4648 c3 -5 10 -6 15 -3 13 9 11 12 -6 12 -8 0 -12 -4 -9 -9z"/>
<path d="M2590 3105 c0 -5 5 -17 10 -25 5 -8 10 -10 10 -5 0 6 -5 17 -10 25
-5 8 -10 11 -10 5z"/>
<path d="M2675 2799 c-4 -6 -5 -12 -2 -15 2 -3 7 2 10 11 7 17 1 20 -8 4z"/>
<path d="M3481 2544 c0 -11 3 -14 6 -6 3 7 2 16 -1 19 -3 4 -6 -2 -5 -13z"/>
<path d="M3501 2544 c0 -11 3 -14 6 -6 3 7 2 16 -1 19 -3 4 -6 -2 -5 -13z"/>
<path d="M2630 1310 c-8 -5 -10 -10 -5 -10 6 0 17 5 25 10 8 5 11 10 5 10 -5
0 -17 -5 -25 -10z"/>
<path d="M3768 1243 c6 -2 18 -2 25 0 6 3 1 5 -13 5 -14 0 -19 -2 -12 -5z"/>
<path d="M2307 1149 c7 -7 15 -10 18 -7 3 3 -2 9 -12 12 -14 6 -15 5 -6 -5z"/>
<path d="M3928 1133 c7 -3 16 -2 19 1 4 3 -2 6 -13 5 -11 0 -14 -3 -6 -6z"/>
<path d="M3928 1103 c7 -3 16 -2 19 1 4 3 -2 6 -13 5 -11 0 -14 -3 -6 -6z"/>
<path d="M3258 1093 c7 -3 16 -2 19 1 4 3 -2 6 -13 5 -11 0 -14 -3 -6 -6z"/>
<path d="M4005 980 c-10 -16 17 -23 31 -8 12 12 11 14 -6 15 -11 1 -22 -2 -25
-7z"/>
<path d="M3098 943 c7 -3 16 -2 19 1 4 3 -2 6 -13 5 -11 0 -14 -3 -6 -6z"/>
<path d="M2488 823 c7 -3 16 -2 19 1 4 3 -2 6 -13 5 -11 0 -14 -3 -6 -6z"/>
<path d="M3798 623 c7 -3 16 -2 19 1 4 3 -2 6 -13 5 -11 0 -14 -3 -6 -6z"/>
<path d="M3450 299 c0 -5 5 -7 10 -4 6 3 10 8 10 11 0 2 -4 4 -10 4 -5 0 -10
-5 -10 -11z"/>
<path d="M3260 270 c0 -5 5 -10 11 -10 5 0 7 5 4 10 -3 6 -8 10 -11 10 -2 0
-4 -4 -4 -10z"/>
<path d="M3508 6213 c6 -2 18 -2 25 0 6 3 1 5 -13 5 -14 0 -19 -2 -12 -5z"/>
<path d="M2407 6129 c7 -7 15 -10 18 -7 3 3 -2 9 -12 12 -14 6 -15 5 -6 -5z"/>
<path d="M3848 6133 c7 -3 16 -2 19 1 4 3 -2 6 -13 5 -11 0 -14 -3 -6 -6z"/>
<path d="M3788 6123 c7 -3 16 -2 19 1 4 3 -2 6 -13 5 -11 0 -14 -3 -6 -6z"/>
<path d="M1390 5200 c0 -5 5 -10 11 -10 5 0 7 5 4 10 -3 6 -8 10 -11 10 -2 0
-4 -4 -4 -10z"/>
<path d="M1383 3915 c-3 -9 -3 -18 -1 -21 3 -3 8 4 11 16 6 23 -1 27 -10 5z"/>
<path d="M1446 3751 c-4 -5 -3 -16 0 -25 5 -13 8 -13 20 -1 20 19 17 30 -3 14
-15 -12 -16 -12 -10 4 7 18 2 23 -7 8z"/>
<path d="M1537 3584 c4 -12 3 -15 -6 -10 -8 6 -7 -2 3 -23 9 -17 19 -31 22
-31 2 0 0 9 -6 19 -5 11 -7 26 -4 34 3 8 1 18 -5 22 -7 4 -8 0 -4 -11z"/>
<path d="M1775 3059 c-4 -6 -5 -12 -2 -15 2 -3 7 2 10 11 7 17 1 20 -8 4z"/>
<path d="M1955 2839 c-4 -6 -5 -12 -2 -15 2 -3 7 2 10 11 7 17 1 20 -8 4z"/>
<path d="M4451 2784 c0 -11 3 -14 6 -6 3 7 2 16 -1 19 -3 4 -6 -2 -5 -13z"/>
<path d="M2110 2581 c0 -6 4 -13 10 -16 6 -3 7 1 4 9 -7 18 -14 21 -14 7z"/>
<path d="M2221 2414 c0 -11 3 -14 6 -6 3 7 2 16 -1 19 -3 4 -6 -2 -5 -13z"/>
<path d="M4085 1430 c3 -5 8 -10 11 -10 2 0 4 5 4 10 0 6 -5 10 -11 10 -5 0
-7 -4 -4 -10z"/>
<path d="M2261 596 c-9 -11 -9 -16 1 -22 7 -4 10 -4 6 1 -4 4 -3 14 3 22 6 7
9 13 6 13 -2 0 -10 -6 -16 -14z"/>
<path d="M2340 460 c8 -5 20 -10 25 -10 6 0 3 5 -5 10 -8 5 -19 10 -25 10 -5
0 -3 -5 5 -10z"/>
<path d="M3961 423 c-10 -26 -10 -27 4 -9 8 11 15 23 15 28 0 15 -7 8 -19 -19z"/>
<path d="M3986 413 c-6 -14 -5 -15 5 -6 7 7 10 15 7 18 -3 3 -9 -2 -12 -12z"/>
<path d="M3848 343 c7 -3 16 -2 19 1 4 3 -2 6 -13 5 -11 0 -14 -3 -6 -6z"/>
<path d="M3569 173 c-13 -16 -12 -17 4 -4 9 7 17 15 17 17 0 8 -8 3 -21 -13z"/>
<path d="M2968 13 c7 -3 16 -2 19 1 4 3 -2 6 -13 5 -11 0 -14 -3 -6 -6z"/>
</g>
</svg>
